<svg width="23" height="22" viewBox="0 0 23 22" fill="none" xmlns="http://www.w3.org/2000/svg">
<path d="M12.3212 11.7076L2.05094 21.7076C1.85823 21.8952 1.59686 22.0006 1.32432 22.0006C1.05178 22.0006 0.790411 21.8952 0.597699 21.7076C0.404987 21.5199 0.296722 21.2654 0.296722 21.0001C0.296722 20.7347 0.404987 20.4802 0.597699 20.2926L10.1426 11.0001L0.597699 1.70757C0.404987 1.51993 0.296722 1.26543 0.296722 1.00007C0.296722 0.734704 0.404987 0.480208 0.597699 0.292568C0.790411 0.104927 1.05178 -0.000488281 1.32432 -0.000488281C1.59686 -0.000488281 1.85823 0.104927 2.05094 0.292568L12.3212 10.2926C12.4167 10.3854 12.4925 10.4957 12.5441 10.6171C12.5958 10.7385 12.6224 10.8687 12.6224 11.0001C12.6224 11.1315 12.5958 11.2616 12.5441 11.383C12.4925 11.5044 12.4167 11.6147 12.3212 11.7076ZM22.5915 10.2926L12.3212 0.292568C12.1285 0.104927 11.8671 -0.000488281 11.5946 -0.000488281C11.3221 -0.000488281 11.0607 0.104927 10.868 0.292568C10.6753 0.480208 10.567 0.734704 10.567 1.00007C10.567 1.26543 10.6753 1.51993 10.868 1.70757L20.4129 11.0001L10.868 20.2926C10.6753 20.4802 10.567 20.7347 10.567 21.0001C10.567 21.2654 10.6753 21.5199 10.868 21.7076C11.0607 21.8952 11.3221 22.0006 11.5946 22.0006C11.8671 22.0006 12.1285 21.8952 12.3212 21.7076L22.5915 11.7076C22.687 11.6147 22.7627 11.5044 22.8144 11.383C22.8661 11.2616 22.8927 11.1315 22.8927 11.0001C22.8927 10.8687 22.8661 10.7385 22.8144 10.6171C22.7627 10.4957 22.687 10.3854 22.5915 10.2926Z" fill="#ACACAC"/>
</svg>
