<svg width="23" height="22" viewBox="0 0 23 22" fill="none" xmlns="http://www.w3.org/2000/svg">
<path d="M10.6788 11.7076L20.949 21.7076C21.1417 21.8952 21.4031 22.0006 21.6756 22.0006C21.9482 22.0006 22.2096 21.8952 22.4023 21.7076C22.595 21.5199 22.7032 21.2654 22.7032 21.0001C22.7032 20.7347 22.595 20.4802 22.4023 20.2926L12.8573 11.0001L22.4023 1.70757C22.595 1.51993 22.7032 1.26543 22.7032 1.00007C22.7032 0.734704 22.595 0.480208 22.4023 0.292568C22.2096 0.104927 21.9482 -0.000488281 21.6756 -0.000488281C21.4031 -0.000488281 21.1417 0.104927 20.949 0.292568L10.6788 10.2926C10.5833 10.3854 10.5075 10.4957 10.4558 10.6171C10.4041 10.7385 10.3775 10.8687 10.3775 11.0001C10.3775 11.1315 10.4041 11.2616 10.4558 11.383C10.5075 11.5044 10.5833 11.6147 10.6788 11.7076ZM0.408485 10.2926L10.6788 0.292568C10.8715 0.104927 11.1328 -0.000488281 11.4054 -0.000488281C11.6779 -0.000488281 11.9393 0.104927 12.132 0.292568C12.3247 0.480208 12.433 0.734704 12.433 1.00007C12.433 1.26543 12.3247 1.51993 12.132 1.70757L2.58707 11.0001L12.132 20.2926C12.3247 20.4802 12.433 20.7347 12.433 21.0001C12.433 21.2654 12.3247 21.5199 12.132 21.7076C11.9393 21.8952 11.6779 22.0006 11.4054 22.0006C11.1328 22.0006 10.8715 21.8952 10.6788 21.7076L0.408485 11.7076C0.312996 11.6147 0.237244 11.5044 0.185558 11.383C0.133875 11.2616 0.107273 11.1315 0.107273 11.0001C0.107273 10.8687 0.133875 10.7385 0.185558 10.6171C0.237244 10.4957 0.312996 10.3854 0.408485 10.2926Z" fill="#ACACAC"/>
</svg>
