<svg width="32" height="32" viewBox="0 0 32 32" fill="none" xmlns="http://www.w3.org/2000/svg">
<path fill-rule="evenodd" clip-rule="evenodd" d="M14.6515 3.87336C15.02 3.53691 15.501 3.35034 16 3.35034C16.499 3.35034 16.98 3.53691 17.3485 3.87336C17.349 3.87381 17.3495 3.87426 17.35 3.87471L27.3475 12.96L27.3616 12.973C27.5592 13.1596 27.7175 13.3839 27.8271 13.6327C27.9367 13.8814 27.9955 14.1496 27.9999 14.4213L28 14.4375V26C28 26.5305 27.7893 27.0392 27.4142 27.4142C27.0391 27.7893 26.5304 28 26 28H20C19.4696 28 18.9609 27.7893 18.5858 27.4142C18.2107 27.0392 18 26.5305 18 26V20H14V26C14 26.5305 13.7893 27.0392 13.4142 27.4142C13.0391 27.7893 12.5304 28 12 28H6C5.46957 28 4.96086 27.7893 4.58579 27.4142C4.21071 27.0392 4 26.5305 4 26V14.4375L4.00013 14.4213C4.00453 14.1496 4.06326 13.8814 4.17288 13.6327C4.28249 13.3839 4.44076 13.1596 4.63838 12.973L4.65247 12.96L14.65 3.87471C14.6505 3.87426 14.651 3.87381 14.6515 3.87336ZM6.00947 14.4292L15.9975 5.35259L16 5.35034L16.0025 5.35259L25.9905 14.4292C25.9932 14.4322 25.9953 14.4355 25.997 14.4392C25.9986 14.443 25.9996 14.447 26 14.4511V26H20V20C20 19.4696 19.7893 18.9609 19.4142 18.5858C19.0391 18.2107 18.5304 18 18 18H14C13.4696 18 12.9609 18.2107 12.5858 18.5858C12.2107 18.9609 12 19.4696 12 20V26H6V14.4511C6.00035 14.447 6.00138 14.443 6.00305 14.4392C6.00465 14.4355 6.00682 14.4322 6.00947 14.4292Z" fill="#7C7C8A"/>
</svg>
